<?xml version="1.0" encoding="UTF-8"?>
<svg version="1.1" viewBox="0 0 260 260" xml:space="preserve" xmlns="http://www.w3.org/2000/svg">
 
 
 <g transform="translate(-52.016 -23.959)">
  <title>Layer 1</title>
  
   <g transform="matrix(1.3333 0 0 -1.3333 0 310.08)">
    <path d="m100.22 148.35s14.316-7.273 25.956-15.468c0.174-0.122 0.349-0.244 0.522-0.367 0.313-0.223 0.621-0.446 0.929-0.669 0.214-0.156 0.428-0.311 0.64-0.467 0.285-0.21 0.567-0.42 0.847-0.631 0.229-0.172 0.456-0.344 0.681-0.517 0.262-0.2 0.522-0.401 0.779-0.601 0.24-0.188 0.474-0.375 0.709-0.563 0.236-0.189 0.473-0.378 0.704-0.566 0.265-0.217 0.521-0.434 0.778-0.651 0.189-0.159 0.383-0.318 0.568-0.477 0.425-0.367 0.839-0.733 1.238-1.098 0.13-0.119 0.25-0.236 0.377-0.355 0.277-0.258 0.551-0.515 0.812-0.771 0.149-0.147 0.289-0.292 0.434-0.437 0.225-0.228 0.447-0.455 0.659-0.681 0.142-0.151 0.276-0.3 0.411-0.449 0.199-0.22 0.391-0.44 0.576-0.657 0.125-0.148 0.248-0.295 0.366-0.441 0.179-0.221 0.346-0.44 0.509-0.658 0.103-0.138 0.208-0.276 0.304-0.413 0.166-0.235 0.315-0.467 0.46-0.698 0.072-0.115 0.151-0.231 0.218-0.344 0.201-0.342 0.382-0.68 0.533-1.011 0.137-0.256 0.251-0.522 0.354-0.793 0.031-0.082 0.055-0.167 0.083-0.251 0.065-0.196 0.123-0.395 0.171-0.599 0.022-0.096 0.042-0.192 0.06-0.289 0.04-0.21 0.068-0.424 0.088-0.642 8e-3 -0.086 0.019-0.171 0.024-0.259 0.018-0.304 0.021-0.614 0-0.932-0.099-1.44 0.137-2.761 0.66-3.929 1.663-4.34 8.771-9.625 17.088-14.572 10.526 6.281 14.634 7.422 16.907 13.755 2.687 7.484-7.236 16.229-18.262 23.409-0.574 0.373-1.165 0.75-1.767 1.128-0.182 0.114-0.37 0.229-0.554 0.344-0.436 0.272-0.877 0.544-1.327 0.818-0.205 0.124-0.412 0.249-0.619 0.374-0.466 0.281-0.938 0.562-1.417 0.844-0.179 0.105-0.356 0.211-0.537 0.316-0.631 0.37-1.271 0.74-1.923 1.111-0.025 0.014-0.05 0.029-0.076 0.044-1.445 0.821-2.936 1.646-4.463 2.469-0.089 0.048-0.179 0.096-0.268 0.143-0.678 0.365-1.364 0.729-2.055 1.092-0.093 0.049-0.186 0.097-0.279 0.146-0.757 0.397-1.505 0.826-2.293 1.187-17.549 8.037-29.162 12.797-43.418 17.1 0 0-17.324 6.137-20.238 3.705-4.459-3.72 24.051-16.729 24.051-16.729" fill="#ffffff"/>
   </g>
   <g transform="matrix(1.3333 0 0 -1.3333 0 310.08)">
    <path d="m190.88 81.103s-44.689 18.77-49.204 30.558c-0.524 1.168-0.76 2.489-0.661 3.929 0.092 1.383-0.185 2.648-0.78 3.765-2.229 4.884-6.787 8.812-14.904 14.142-11.015-7.572-14.427-10.571-16.885-17.959-0.124-0.372-0.214-0.73-0.311-1.092l-0.014-1e-3c-0.02-0.073-0.029-0.142-0.047-0.215-0.08-0.312-0.145-0.618-0.205-0.923-0.042-0.214-0.085-0.428-0.118-0.639-0.046-0.297-0.079-0.591-0.107-0.883-0.02-0.208-0.038-0.417-0.048-0.622-0.014-0.285-0.017-0.567-0.013-0.847 3e-3 -0.204 9e-3 -0.407 0.021-0.609 0.017-0.274 0.043-0.545 0.078-0.815 0.025-0.199 0.056-0.398 0.091-0.596 0.047-0.264 0.101-0.527 0.164-0.788 0.048-0.196 0.103-0.392 0.161-0.586 0.075-0.256 0.156-0.511 0.248-0.763 0.071-0.195 0.15-0.388 0.23-0.582 0.103-0.247 0.21-0.495 0.328-0.741 0.094-0.194 0.197-0.387 0.301-0.58 0.129-0.241 0.259-0.481 0.403-0.72 0.117-0.195 0.245-0.39 0.373-0.585 0.153-0.234 0.306-0.469 0.474-0.703 0.141-0.197 0.294-0.394 0.445-0.591 0.176-0.229 0.35-0.458 0.54-0.687 0.167-0.203 0.348-0.406 0.526-0.609 0.195-0.222 0.386-0.445 0.593-0.667 0.196-0.211 0.407-0.423 0.613-0.634 0.211-0.216 0.417-0.432 0.64-0.649 0.228-0.223 0.473-0.448 0.713-0.672 0.221-0.207 0.435-0.412 0.665-0.62 0.272-0.245 0.562-0.493 0.846-0.739 0.22-0.191 0.432-0.38 0.659-0.572 0.339-0.286 0.697-0.576 1.053-0.866 0.193-0.157 0.376-0.312 0.573-0.47 0.563-0.45 1.144-0.906 1.746-1.368 14.5-11.136 49.766-20.568 71.447-24.993 0 0 21.607-5.709 27.227-3.082 7.641 3.57-27.861 16.074-27.861 16.074" fill="#ffffff"/>
   </g>
   <g transform="matrix(1.3333 0 0 -1.3333 0 310.08)">
    <path d="m120.06 93.104c-0.601 0.462-1.183 0.917-1.745 1.368-0.073 0.058-0.142 0.115-0.212 0.173-17.41-10.628-36.185-20.177-36.185-20.177s-44.064-22.255-42.324-25.953c1.739-3.698 29.494 7.624 29.494 7.624 17.036 5.995 41.36 17.091 64.823 29.157-5.521 2.469-10.308 5.087-13.851 7.808" fill="#ffffff"/>
   </g>
   <g transform="matrix(1.3333 0 0 -1.3333 0 310.08)">
    <path d="m197.69 172.08c-14.823-6.637-33.479-17.465-54.866-29.366 0.547-0.289 1.094-0.578 1.633-0.867 0.089-0.048 0.179-0.096 0.268-0.144 1.527-0.823 3.018-1.647 4.463-2.469 0.026-0.015 0.051-0.029 0.076-0.044 0.652-0.371 1.292-0.741 1.923-1.11 0.181-0.106 0.358-0.211 0.537-0.317 0.479-0.282 0.951-0.563 1.417-0.843 0.207-0.125 0.414-0.25 0.619-0.375 0.45-0.274 0.891-0.546 1.327-0.818 0.185-0.114 0.372-0.23 0.554-0.344 0.551-0.346 1.09-0.691 1.618-1.033 9.281 6.002 75.737 49.027 75.658 50.279-0.289 4.542-35.227-12.549-35.227-12.549" fill="#ffffff"/>
   </g>
  
 </g>
</svg>
